<!--?xml version="1.0" encoding="UTF-8" standalone="no"?-->
<!-- Created with Inkscape (http://www.inkscape.org/) -->

<svg xmlns:dc="http://purl.org/dc/elements/1.1/" xmlns:cc="http://creativecommons.org/ns#" xmlns:rdf="http://www.w3.org/1999/02/22-rdf-syntax-ns#" xmlns:svg="http://www.w3.org/2000/svg" xmlns="http://www.w3.org/2000/svg" xmlns:sodipodi="http://sodipodi.sourceforge.net/DTD/sodipodi-0.dtd" xmlns:inkscape="http://www.inkscape.org/namespaces/inkscape" width="115.70228mm" height="64.644615mm" viewBox="0 0 409.9687 229.05572" id="svg4304" version="1.1" inkscape:version="0.91 r13725" sodipodi:docname="craft5.svg" style="">
  <defs id="defs4306"></defs>
  <sodipodi:namedview id="base" pagecolor="#ffffff" bordercolor="#666666" borderopacity="1.0" inkscape:pageopacity="0.0" inkscape:pageshadow="2" inkscape:zoom="0.7" inkscape:cx="237.88844" inkscape:cy="133.80675" inkscape:document-units="px" inkscape:current-layer="layer1" showgrid="false" inkscape:window-width="1600" inkscape:window-height="838" inkscape:window-x="-8" inkscape:window-y="-8" inkscape:window-maximized="1" units="mm" fit-margin-top="0" fit-margin-left="0" fit-margin-right="0" fit-margin-bottom="0"></sodipodi:namedview>
  <metadata id="metadata4309">
    <rdf:rdf>
      <cc:work rdf:about="">
        <dc:format>image/svg+xml</dc:format>
        <dc:type rdf:resource="http://purl.org/dc/dcmitype/StillImage"></dc:type>
        <dc:title></dc:title>
      </cc:work>
    </rdf:rdf>
  </metadata>
  <g inkscape:label="レイヤー 1" inkscape:groupmode="layer" id="layer1" transform="translate(-32.486332,-302.88843)">
    <g style="font-size:70px;line-height:125%;font-family:'Ribeye Marrow';-inkscape-font-specification:'Ribeye Marrow, Normal';letter-spacing:0px;word-spacing:0px;fill:none;stroke:#000000;stroke-width:2" id="text4312" transform="translate(-81.428568,174.28571)">
      <path d="m 175.24205,176.56561 q 1.46973,-2.87109 2.46094,-5.12695 -8.10059,-14.49219 -10.9375,-37.29004 -0.85449,0.0684 -1.74317,0.0684 l -3.14453,0 q 2.0166,17.29492 9.02344,33.63281 1.91406,4.40918 4.34082,8.71582 z m 23.17383,0.78614 q 1.57226,-3.17872 2.3584,-4.85352 -7.28028,-14.25293 -10.69825,-26.93359 -0.71777,3.48632 -2.08496,8.30566 1.91407,7.14355 6.08399,15.72266 1.87988,3.82812 4.34082,7.75879 z m 6.01562,-47.47559 q 3.41797,0.61523 7.31446,0.61523 3.89648,0 7.65625,-0.88867 l 0.41015,0 q 0.75196,0 1.29883,0.54688 0.54688,0.51269 0.54688,1.19629 0,0.64941 -0.44434,1.16211 -0.41016,0.47851 -1.53809,0.71777 -3.14453,0.68359 -6.08398,0.78613 -2.7002,19.96094 -5.87891,30.24903 -1.94824,6.32324 -3.99902,10.49316 -2.05078,4.16992 -2.90527,5.77637 -0.8545,1.60644 -1.26465,1.8457 -0.37598,0.27344 -1.16211,0.27344 -0.75195,0 -1.29883,-0.75196 -6.52832,-9.50195 -11.00586,-22.04589 -4.27246,12.40722 -9.22851,21.25976 -0.47852,0.99121 -1.50391,0.99121 -1.02539,0 -1.57227,-0.92285 -9.57031,-15.55176 -13.87695,-36.60644 -1.09375,-5.43458 -1.6748,-10.49317 -1.70899,-0.13672 -2.83692,-0.23926 -2.05078,-0.23925 -2.05078,-1.87988 0.10254,-0.82031 0.61523,-1.26465 0.5127,-0.47851 1.19629,-0.47851 l 0.13672,0 q 3.89649,0.41015 9.29688,0.41015 5.43457,0 11.58691,-1.02539 l 0.27344,0 q 0.78613,0 1.29883,0.54688 0.51269,0.51269 0.51269,1.19629 0,0.68359 -0.44433,1.19629 -0.41016,0.51269 -1.50391,0.68359 -3.65723,0.47851 -5.87891,0.71777 1.46973,13.70606 6.28907,26.62598 1.23047,3.38379 2.80273,6.63086 7.45117,-17.60254 8.4082,-31.51367 0.0684,-0.6836 0.5127,-1.12793 0.47852,-0.47852 1.16211,-0.5127 1.46973,-0.0684 1.87988,1.43555 2.80274,15.44922 11.14258,32.67578 4.23828,-10.86914 7.34863,-34.07715 -3.21289,-0.13672 -6.18652,-0.64941 -0.61524,-0.10254 -1.05957,-0.58106 -0.41016,-0.51269 -0.41016,-1.26465 0,-0.78613 0.58106,-1.23046 0.61523,-0.47852 1.19629,-0.47852 l 0.34179,0 z" id="path4321" inkscape:connector-curvature="0" class="KCEbjDaY_0"></path>
      <path d="m 233.27916,148.91425 q -8.98926,3.24707 -8.98926,13.63769 0,6.52832 4.51172,10.9375 1.40137,1.36719 3.21289,2.29004 -2.93945,-4.375 -2.93945,-11.96289 0,-5.36621 0.78613,-7.99805 1.23047,-4.16992 3.41797,-6.90429 z m -0.58106,13.43261 q 3.82813,1.19629 8.78418,1.19629 4.95606,0 9.63868,-2.08496 l 0,-0.58105 q 0,-8.27149 -5.29786,-11.41602 -1.8457,-1.09375 -4.44335,-1.46973 -8.33985,0.95704 -8.68165,14.35547 z m 21.97754,-1.53808 -0.0684,1.98242 q -0.34179,2.83691 -9.02343,4.0332 -2.76856,0.37598 -5.87891,0.37598 -3.07617,0 -6.93848,-1.05957 0.75196,7.75879 5.19532,10.49316 1.64062,0.99121 3.21289,0.99121 1.60644,0 2.70019,-0.20508 1.09375,-0.23925 2.15332,-0.64941 2.39258,-0.99121 3.34961,-2.39258 0.58106,-0.68359 1.33301,-0.68359 0.78613,0 1.33301,0.58105 0.54687,0.54688 0.54687,1.26465 0,0.6836 -0.44433,1.09375 -1.46973,2.29004 -5.46875,3.62305 -7.417,2.42676 -14.25293,-0.41016 -7.17774,-2.93945 -10.18555,-9.91211 -1.50391,-3.41797 -1.50391,-7.55371 0,-4.16992 1.29883,-7.55371 1.29883,-3.41797 3.69141,-5.74219 4.88769,-4.78515 13.50098,-4.78515 15.44921,0.64941 15.44921,16.50879 z" id="path4323" inkscape:connector-curvature="0" class="KCEbjDaY_1"></path>
      <path d="m 272.27818,134.08026 q -2.22168,0.20508 -4.68261,0.20508 l -0.27344,0 0,41.28906 4.95605,0 0,-41.49414 z m -8.51074,0.13672 -4.2041,-0.47852 q -0.68359,-0.10253 -1.12793,-0.61523 -0.41016,-0.5127 -0.41016,-1.26465 0,-0.78613 0.61524,-1.23047 0.61523,-0.47851 1.19629,-0.47851 l 0.20507,0 q 0.0342,0 0.61524,0.10254 0.58105,0.0684 1.57226,0.17089 2.46094,0.30762 5.43458,0.30762 3.65722,0 4.92187,-0.27344 1.26465,-0.30761 1.77734,-0.30761 0.54688,0 1.05957,0.58105 0.5127,0.54688 0.5127,1.23047 l -0.0684,43.98926 q 0.95703,0.10254 1.50391,0.20508 0.58105,0.0684 0.95703,0.13672 0.41015,0.0342 1.02539,0.17089 0.64941,0.13672 1.05957,0.61524 0.41015,0.47851 0.41015,1.19629 0,0.68359 -0.58105,1.19629 -0.54687,0.51269 -1.23047,0.51269 l -0.3418,0 q -9.46777,-1.6748 -18.69628,0.0684 l -0.3418,0 q -0.85449,0 -1.29883,-0.54687 -0.44434,-0.5127 -0.44434,-1.19629 0,-1.43555 1.40137,-1.81153 2.05078,-0.34179 4.47754,-0.54687 l 0,-41.7334 z" id="path4325" inkscape:connector-curvature="0" class="KCEbjDaY_2"></path>
      <path d="m 298.15221,177.04413 q -4.5459,-4.75098 -4.5459,-13.36426 0,-5.40039 1.77734,-10.35644 1.74317,-4.75098 3.96485,-6.22071 -10.86915,2.66602 -10.86915,16.16699 0,7.96387 5.53711,11.82618 1.81153,1.26464 4.13575,1.94824 z m 19.96093,-20.23438 q -0.10254,0.6836 -0.64941,1.12793 -0.5127,0.44434 -1.19629,0.44434 -0.68359,0 -1.19629,-0.47852 -0.47851,-0.47851 -0.51269,-1.57226 -0.0342,-1.12793 -0.64942,-2.73438 -0.61523,-1.60644 -1.6748,-2.93945 -2.46094,-3.07617 -5.33203,-3.07617 -3.52051,0 -5.94727,2.93945 -2.90527,3.52051 -3.58887,10.08301 -0.20507,1.74316 -0.20507,3.65723 0,1.87988 0.51269,4.27246 0.54688,2.39257 1.64063,4.27246 2.46093,4.30664 6.87011,4.30664 3.28125,0 6.01563,-2.80274 2.49512,-2.56347 3.31543,-5.708 0.37597,-1.46973 1.74316,-1.46973 0.75195,0 1.26465,0.58105 0.54688,0.54688 0.54688,0.99121 0,0.44434 -0.1709,1.09375 -0.13672,0.61524 -0.71778,1.94825 -0.58105,1.333 -1.53808,2.66601 -0.92285,1.33301 -2.25586,2.59766 -1.33301,1.23047 -3.04199,2.1875 -3.79395,2.11914 -8.06641,2.11914 -4.23828,0 -7.55371,-1.33301 -3.31543,-1.29883 -5.70801,-3.6914 -5.09277,-5.02442 -5.09277,-13.02247 0,-8.88671 4.64843,-14.38964 4.85352,-5.77637 13.26172,-5.77637 3.89649,0 7.2461,1.57226 3.34961,1.53809 5.50293,4.64844 l 1.12793,-6.97265 q 0.10254,-0.64942 0.58105,-1.05957 0.5127,-0.41016 1.26465,-0.41016 0.75195,0 1.23047,0.58105 0.47851,0.58106 0.47851,1.16211 l 0,0.27344 -2.15332,13.91113 z" id="path4327" inkscape:connector-curvature="0" class="KCEbjDaY_3"></path>
      <path d="m 337.49303,148.70917 q -6.11817,2.3584 -8.06641,8.85254 -0.68359,2.25586 -0.68359,5.09277 0,2.83691 0.64941,5.09277 0.64941,2.25586 1.74316,3.96485 2.11915,3.17871 5.87891,4.71679 -3.41797,-4.75097 -3.41797,-13.94531 0,-9.19433 3.89649,-13.77441 z m 17.39746,23.99414 q 1.60644,-2.05078 2.42676,-4.68262 0.85449,-2.63184 0.85449,-4.85351 0,-2.22168 -0.37598,-3.93067 -0.37598,-1.70898 -1.09375,-3.31543 -0.71777,-1.60644 -1.74316,-3.00781 -1.02539,-1.40137 -2.29004,-2.46094 -2.76856,-2.22168 -6.04981,-2.22168 -6.63086,0 -8.64746,7.79297 -0.75195,2.87109 -0.75195,5.33203 0,2.42676 0.13672,4.13574 0.13672,1.67481 0.47851,3.34961 0.3418,1.64063 0.92286,3.17871 0.58105,1.53809 1.5039,2.7002 2.0166,2.5293 5.16113,2.5293 3.17872,0 5.50293,-1.23047 2.3584,-1.26465 3.96485,-3.31543 z m 6.83594,-9.91211 q 0,3.93066 -1.46973,7.34863 -1.46973,3.41797 -3.96485,5.87891 -5.29785,5.16113 -12.85156,5.16113 -8.30566,0 -13.2959,-5.05859 -4.95605,-5.02442 -4.95605,-13.50098 0,-8.03223 5.26367,-13.33008 5.19531,-5.26367 12.98828,-5.26367 7.92969,0 13.19336,5.53711 5.09278,5.33203 5.09278,13.22754 z" id="path4329" inkscape:connector-curvature="0" class="KCEbjDaY_4"></path>
      <path d="m 377.44908,175.77948 q 2.0166,0 3.14453,0.10254 l 0,-25.49805 q -1.74316,0.27344 -4.68261,0.27344 l -0.27344,0 0,25.12207 1.81152,0 z m 8.68164,4.2041 q -9.98047,-1.33301 -18.49121,0.37598 -0.78613,0 -1.26465,-0.58106 -0.47851,-0.58105 -0.47851,-1.23047 0,-0.64941 0.37597,-1.1621 0.37598,-0.5127 1.33301,-0.6836 1.91406,-0.37598 4.44336,-0.61523 l 0,-25.56641 -5.22949,-0.41016 q -0.6836,-0.10253 -1.12793,-0.61523 -0.41016,-0.5127 -0.41016,-1.26465 0,-0.78613 0.61524,-1.23047 0.61523,-0.47851 1.19629,-0.47851 l 0.20507,0 q 0.0342,0 0.78614,0.10254 0.75195,0.0684 1.94824,0.20507 2.97363,0.27344 5.94726,0.27344 3.86231,0 6.08399,-0.58105 l 0.3418,0 q 0.78613,0 1.29882,0.54687 0.54688,0.54688 0.54688,1.23047 l 0,4.47754 q 2.90527,-4.7168 7.24609,-6.28906 1.60645,-0.58106 3.34961,-0.58106 1.74317,0 3.07617,0.47852 1.33301,0.47851 2.39258,1.33301 2.05078,1.74316 2.97364,4.68261 4.2041,-6.49414 10.97167,-6.49414 5.16114,0 7.5879,4.375 1.87988,3.38379 1.87988,9.29688 0,5.91308 -1.74317,15.85937 5.0586,0 5.87891,0.92285 0.47852,0.5127 0.47852,1.23047 0,0.6836 -0.58106,1.23047 -0.54687,0.54688 -1.23047,0.54688 l -0.23926,0 q -2.52929,-0.3418 -5.60546,-0.3418 -3.042,0 -7.31446,0.68359 l -0.30761,0 q -0.71778,0 -1.23047,-0.51269 -0.5127,-0.54688 -0.5127,-1.23047 0,-0.68359 0.41016,-1.19629 0.44433,-0.51269 1.5039,-0.68359 2.97364,-0.41016 5.02442,-0.58106 1.81152,-9.05761 1.81152,-16.16699 0,-4.23828 -0.82031,-6.15234 -0.82031,-1.91407 -1.98242,-2.80274 -1.12793,-0.92285 -3.28125,-0.92285 -2.11914,0 -3.86231,0.99121 -1.70898,0.99121 -2.93945,2.46094 -1.94824,2.29004 -3.21289,6.15234 0,6.15235 -1.46973,16.44043 1.29883,0 4.47754,0.27344 0.75195,0.0684 1.16211,0.58105 0.44434,0.5127 0.44434,1.26465 0,0.75196 -0.54688,1.26465 -0.54687,0.47852 -1.19629,0.47852 l -0.20508,0 q -5.67382,-0.6836 -12.68066,0.34179 l -0.27344,0 q -0.75195,0 -1.26465,-0.51269 -0.47851,-0.54688 -0.47851,-1.23047 0,-0.68359 0.41016,-1.19629 0.44433,-0.51269 1.53808,-0.68359 2.97363,-0.41016 4.99024,-0.5127 1.53808,-9.60449 1.53808,-16.64551 0,-4.16992 -0.75195,-5.94726 -0.75195,-1.77735 -1.8457,-2.63184 -1.05958,-0.88867 -2.83692,-0.88867 -1.74316,0 -3.17871,0.78613 -1.43555,0.75196 -2.59766,1.94825 -1.16211,1.1621 -2.05078,2.59765 -0.85449,1.40137 -1.46972,2.7002 -1.02539,2.1875 -1.43555,3.72558 l -0.0684,14.93653 q 0.61523,0.0684 1.19629,0.13672 0.58105,0.0684 1.19629,0.17089 0.64941,0.0684 1.09375,0.58106 0.47851,0.51269 0.47851,1.23047 0,0.71777 -0.58105,1.23047 -0.54688,0.47851 -1.23047,0.47851 l -0.20508,0 z" id="path4331" inkscape:connector-curvature="0" class="KCEbjDaY_5"></path>
      <path d="m 444.78307,148.91425 q -8.98926,3.24707 -8.98926,13.63769 0,6.52832 4.51172,10.9375 1.40136,1.36719 3.21289,2.29004 -2.93946,-4.375 -2.93946,-11.96289 0,-5.36621 0.78614,-7.99805 1.23047,-4.16992 3.41797,-6.90429 z m -0.58106,13.43261 q 3.82813,1.19629 8.78418,1.19629 4.95606,0 9.63867,-2.08496 l 0,-0.58105 q 0,-8.27149 -5.29785,-11.41602 -1.8457,-1.09375 -4.44336,-1.46973 -8.33984,0.95704 -8.68164,14.35547 z m 21.97754,-1.53808 -0.0684,1.98242 q -0.3418,2.83691 -9.02344,4.0332 -2.76855,0.37598 -5.8789,0.37598 -3.07617,0 -6.93848,-1.05957 0.75195,7.75879 5.19531,10.49316 1.64063,0.99121 3.21289,0.99121 1.60645,0 2.7002,-0.20508 1.09375,-0.23925 2.15332,-0.64941 2.39258,-0.99121 3.34961,-2.39258 0.58105,-0.68359 1.33301,-0.68359 0.78613,0 1.333,0.58105 0.54688,0.54688 0.54688,1.26465 0,0.6836 -0.44434,1.09375 -1.46972,2.29004 -5.46875,3.62305 -7.41699,2.42676 -14.25293,-0.41016 -7.17773,-2.93945 -10.18554,-9.91211 -1.50391,-3.41797 -1.50391,-7.55371 0,-4.16992 1.29883,-7.55371 1.29883,-3.41797 3.6914,-5.74219 4.8877,-4.78515 13.50098,-4.78515 15.44922,0.64941 15.44922,16.50879 z" id="path4333" inkscape:connector-curvature="0" class="KCEbjDaY_6"></path>
      <path d="m 298.35728,265.05682 q -2.32421,-2.0166 -2.32421,-5.05859 l 0,-39.2041 -4.8877,1.40137 0,33.73535 q 0,7.45117 4.58008,8.75 1.29883,0.34179 2.63183,0.37597 z m 1.26465,-32.57324 q 4.23828,-0.13672 8.51075,-0.47851 l 0.13671,0 q 0.75196,0 1.26465,0.54687 0.5127,0.5127 0.5127,1.19629 0,0.68359 -0.47852,1.23047 -0.44433,0.51269 -1.12793,0.58105 -5.22949,0.41016 -8.81836,0.5127 l 0,23.92578 q 0,2.05078 2.08496,2.90527 0.58106,0.23926 1.33301,0.23926 0.78613,0 1.36719,-0.47851 0.61523,-0.5127 1.02539,-1.26465 0.54687,-0.99121 0.88867,-2.32422 0.5127,-2.08496 1.94824,-2.08496 0.78614,0 1.26465,0.61523 0.5127,0.58106 0.5127,1.19629 l 0,0.37598 q -0.99121,4.5459 -3.89649,7.04101 -2.90527,2.46094 -7.17773,2.46094 -7.72461,0 -10.42481,-6.32324 -1.05957,-2.46094 -1.05957,-6.42578 l 0,-19.92676 q -1.53808,-0.10254 -3.11035,-0.20508 -1.53808,-0.10254 -2.66601,-0.23926 -2.05078,-0.20507 -2.05078,-1.81152 0,-0.78613 0.58105,-1.26465 0.61523,-0.47851 1.23047,-0.47851 l 0.13672,0 5.8789,0.41015 0,-11.62109 q 0,-0.58106 0.37598,-1.05957 0.37598,-0.5127 0.95703,-0.6836 l 8.54492,-2.29003 q 0.13672,-0.10254 0.6836,-0.10254 0.58105,0 1.05957,0.58105 0.51269,0.58106 0.51269,1.26465 l 0,13.97949 z" id="path4335" inkscape:connector-curvature="0" class="KCEbjDaY_7"></path>
      <path d="m 326.96568,236.20917 q -6.11816,2.3584 -8.0664,8.85254 -0.6836,2.25586 -0.6836,5.09277 0,2.83691 0.64942,5.09277 0.64941,2.25586 1.74316,3.96485 2.11914,3.17871 5.87891,4.71679 -3.41797,-4.75097 -3.41797,-13.94531 0,-9.19433 3.89648,-13.77441 z m 17.39746,23.99414 q 1.60645,-2.05078 2.42676,-4.68262 0.85449,-2.63184 0.85449,-4.85351 0,-2.22168 -0.37597,-3.93067 -0.37598,-1.70898 -1.09375,-3.31543 -0.71778,-1.60644 -1.74317,-3.00781 -1.02539,-1.40137 -2.29004,-2.46094 -2.76855,-2.22168 -6.0498,-2.22168 -6.63086,0 -8.64746,7.79297 -0.75195,2.87109 -0.75195,5.33203 0,2.42676 0.13671,4.13574 0.13672,1.67481 0.47852,3.34961 0.3418,1.64063 0.92285,3.17871 0.58106,1.53809 1.50391,2.7002 2.0166,2.5293 5.16113,2.5293 3.17871,0 5.50293,-1.23047 2.3584,-1.26465 3.96484,-3.31543 z m 6.83594,-9.91211 q 0,3.93066 -1.46973,7.34863 -1.46972,3.41797 -3.96484,5.87891 -5.29785,5.16113 -12.85156,5.16113 -8.30567,0 -13.2959,-5.05859 -4.95605,-5.02442 -4.95605,-13.50098 0,-8.03223 5.26367,-13.33008 5.19531,-5.26367 12.98828,-5.26367 7.92969,0 13.19336,5.53711 5.09277,5.33203 5.09277,13.22754 z" id="path4337" inkscape:connector-curvature="0" class="KCEbjDaY_8"></path>
      <path d="m 130.26158,309.55878 q -11.75781,5.81054 -11.75781,21.56738 0,10.52734 6.11816,15.96191 2.0166,1.81153 4.78516,3.28125 -5.81055,-7.04101 -5.81055,-20.50781 0,-13.36426 6.66504,-20.30273 z m 10.7666,-6.01563 q 9.53614,0 15.1416,6.66504 l 1.87989,-5.40039 q 0.44433,-1.26465 1.43554,-1.26465 0.99122,0 1.50391,0.58106 0.54688,0.54687 0.54688,1.05957 0,0.47851 -0.13672,0.75195 l -5.43457,15.89355 q -0.3418,1.16211 -1.43555,1.16211 -1.05957,0 -1.57227,-0.58105 -0.51269,-0.58106 -0.51269,-0.99121 0,-0.44434 0.13672,-0.71778 l 2.1875,-6.3916 q -2.90528,-4.64843 -7.75879,-6.35742 -1.60645,-0.54687 -3.99903,-0.54687 -2.35839,0 -4.81933,0.95703 -2.42676,0.95703 -4.27246,2.59765 -1.81153,1.64063 -3.11035,3.86231 -1.29883,2.1875 -2.08496,4.68262 -1.53809,4.71679 -1.53809,10.35644 0,8.30567 2.59766,14.59473 2.0166,4.85351 5.708,6.90429 1.91407,1.05957 4.64844,1.05957 2.76856,0 5.43457,-0.85449 2.7002,-0.85449 4.8877,-2.46093 4.61425,-3.31543 6.45996,-8.75 0.37597,-1.40137 1.43554,-1.40137 1.05957,0 1.57227,0.58105 0.5127,0.58106 0.5127,1.26465 l 0,0.41016 q -0.0342,0.0684 -0.23926,0.68359 -0.1709,0.61524 -0.58106,1.60645 -3.24707,7.34863 -10.52734,10.56152 -4.375,1.91406 -9.70703,1.8457 -5.29785,-0.0342 -9.94629,-1.81152 -4.61426,-1.81152 -7.82715,-5.05859 -6.69922,-6.66504 -6.69922,-17.91016 0,-14.45801 8.54492,-21.60156 7.21192,-5.98145 17.56836,-5.98145 z" id="path4339" inkscape:connector-curvature="0" class="KCEbjDaY_9"></path>
      <path d="m 180.26646,324.8371 q -1.29882,0.20508 -4.71679,0.20508 l -0.27344,0 0,25.12207 q 0.64941,-0.0684 1.26465,-0.0684 0,0 3.72558,0 l 0,-25.25879 z m 19.10645,7.58789 q 0.20508,-0.44434 0.20508,-1.23047 0,-0.78613 -0.75196,-1.50391 -0.71777,-0.75195 -1.77734,-0.75195 -1.05957,0 -1.81152,0.75195 -0.71778,0.71778 -0.71778,1.50391 0,0.78613 0.20508,1.23047 0.20508,0.44433 0.54688,0.82031 0.71777,0.75195 1.77734,0.75195 1.60645,0 2.32422,-1.57226 z m -15.4834,-7.2461 q 3.41797,-4.75097 9.02344,-4.75097 4.64844,0.13672 7.51953,2.83691 2.93945,2.7002 2.93945,7.0752 0,2.90527 -1.70898,5.02441 -1.77735,2.1875 -4.61426,2.1875 -2.5293,0 -4.30664,-1.77734 -1.77734,-1.77735 -1.77734,-4.30664 0,-2.49512 1.77734,-4.30664 1.77734,-1.84571 4.30664,-1.84571 0.1709,0 0.30762,0.0342 0.1709,0.0342 0.34179,0.0342 -1.81152,-1.40137 -4.27246,-1.40137 -2.46093,0 -3.89648,0.82032 -1.43555,0.78613 -2.46094,2.0166 -0.99121,1.19629 -1.60644,2.63183 -0.61524,1.40137 -0.95703,2.63184 -0.61524,2.08496 -0.61524,3.17871 l -0.0684,15.17578 q 1.19629,0.10254 2.39258,0.30762 1.23047,0.20508 2.1875,0.41016 1.77734,0.34179 1.77734,1.81152 0,0.75195 -0.58105,1.26465 -0.58106,0.47851 -1.23047,0.47851 l -0.3418,0 q -5.708,-1.05957 -10.21972,-1.05957 -4.44336,0 -10.15137,1.05957 l -0.3418,0 q -0.78613,0 -1.26465,-0.51269 -0.47851,-0.54688 -0.47851,-1.19629 0,-1.46973 1.40137,-1.8457 1.19628,-0.20508 2.39257,-0.41016 1.19629,-0.20508 2.3584,-0.30762 l 0,-25.46386 q -4.51172,-0.20508 -5.26367,-0.5127 -0.68359,-0.0684 -1.12793,-0.54687 -0.41016,-0.5127 -0.41016,-1.26465 0,-0.78614 0.58106,-1.26465 0.61523,-0.47852 1.23047,-0.47852 l 0.23926,0 q 0.23925,0.23926 3.62304,0.41016 3.41797,0.13672 5.02442,0.13672 3.79394,0 4.99023,-0.27344 1.19629,-0.27344 1.70899,-0.27344 0.54687,0 1.05957,0.58106 0.51269,0.54687 0.51269,1.23047 l 0,2.46093 z" id="path4341" inkscape:connector-curvature="0" class="KCEbjDaY_10"></path>
      <path d="m 230.64732,342.54218 q -0.13672,-1.16211 -0.13672,-2.46094 l -1.26464,0 q -5.60547,0 -11.00586,2.05078 -6.9043,2.59766 -6.9043,7.41699 0,1.77734 1.60645,2.76856 1.333,0.78613 3.48632,0.78613 2.15332,0 4.30664,-0.92285 2.1875,-0.95703 4.03321,-2.46094 3.28125,-2.73438 5.8789,-7.17773 z m 8.23731,8.47656 q 0.10254,-1.02539 0.10254,-4.10156 0,-3.07618 -0.13672,-5.84473 -0.10254,-2.80274 -0.5127,-5.40039 -0.41015,-2.59766 -1.23047,-4.8877 -0.82031,-2.29004 -2.22168,-3.96484 -3.11035,-3.69141 -8.64746,-3.69141 -0.10254,0 -0.17089,0.0684 -0.0684,0.0342 -0.1709,0.0342 l 0.13672,0 q 5.50293,2.97363 7.14355,9.87793 0.92285,3.79395 0.99121,7.21192 0.10254,3.38378 0.10254,5.33203 0,3.07617 -0.27344,6.18652 2.46094,-0.5127 4.8877,-0.82031 z m 5.74219,-0.37598 2.46093,0.0684 q 0.75196,0.0684 1.19629,0.58106 0.47852,0.51269 0.47852,1.26464 0,0.71778 -0.5127,1.26465 -0.47851,0.54688 -1.23047,0.54688 l -0.13671,0 q -0.58106,-0.0684 -1.19629,-0.0684 l -1.19629,0 q -6.25489,0 -12.09961,1.6748 l -0.47852,0.0684 q -0.78613,0 -1.29883,-0.61523 -0.47851,-0.58106 -0.47851,-1.19629 l 0,-0.27344 q 0,-0.0684 0.1709,-1.36719 0.1709,-1.333 0.34179,-3.6914 -6.93847,7.75879 -14.42382,7.75879 -3.45215,0 -5.87891,-1.91407 -2.59766,-2.0166 -2.59766,-4.88769 0,-2.8711 1.09375,-4.81934 1.12793,-1.94824 2.93946,-3.38379 1.81152,-1.46972 4.10156,-2.42675 2.32422,-0.99122 4.7168,-1.60645 4.44335,-1.09375 8.64746,-1.09375 l 0.82031,0 q 0,-4.34082 -2.76856,-7.58789 -2.93945,-3.41797 -7.14355,-3.41797 -3.14453,0 -5.87891,3.21289 -2.66601,3.11035 -2.66601,6.52832 0,0.6836 -0.58106,1.16211 -0.54687,0.44434 -1.26465,0.44434 -0.71777,0 -1.26464,-0.54688 -0.54688,-0.58105 -0.54688,-1.74316 0,-1.16211 0.58106,-2.93946 0.58105,-1.81152 1.6748,-3.5205 1.12793,-1.74317 2.7002,-3.28125 1.60644,-1.53809 3.65722,-2.73438 4.375,-2.52929 8.88672,-2.52929 4.5459,0 7.24609,1.19628 2.73438,1.19629 4.5459,3.24707 1.84571,2.05079 2.90528,4.75098 1.05957,2.7002 1.60644,5.70801 0.85449,4.7168 0.85449,12.06543 l -0.0684,4.16992 2.08497,-0.0684 z" id="path4343" inkscape:connector-curvature="0" class="KCEbjDaY_11"></path>
      <path d="m 269.23619,306.00409 q -4.51172,1.09375 -6.93848,4.95605 -2.15332,3.38379 -2.15332,8.27149 l 0,30.7959 q 0.61524,-0.0684 1.26465,-0.0684 1.19629,0 2.08496,0 0.88868,0 1.46973,0.0684 l 0,-29.73633 q 0,-10.01465 4.27246,-14.28711 z m 4.61426,48.63769 q -5.63965,-1.12793 -11.14258,-1.12793 -5.46875,0 -11.1084,1.12793 -0.78613,0 -1.29883,-0.54687 -0.51269,-0.58106 -0.51269,-1.23047 0,-1.57226 1.46973,-1.77734 2.87109,-0.61524 5.29785,-0.78614 l 0,-26.25 q -2.8711,0 -4.75098,-0.10253 -1.87988,-0.10254 -2.39258,-0.61524 -0.47851,-0.51269 -0.47851,-1.23047 0,-0.75195 0.54687,-1.26465 0.54688,-0.54687 1.26465,-0.54687 l 0.0684,0 5.74219,0.20508 0,-1.26465 q 0,-7.65625 4.16992,-12.30469 4.27246,-4.78516 11.51855,-4.78516 6.11817,0 9.98047,3.93067 3.58887,3.65723 3.45215,8.61328 l 0,0.0684 q 0,0.71777 -0.54687,1.23047 -0.5127,0.51269 -1.26465,0.51269 -0.75196,0 -1.26465,-0.51269 -0.47852,-0.5127 -0.58106,-1.53809 -0.0684,-1.05957 -0.51269,-2.46094 -0.41016,-1.40136 -1.19629,-2.52929 -1.77734,-2.56348 -4.58008,-2.56348 -5.26367,0 -6.69922,7.96387 -0.44433,2.46094 -0.44433,5.43457 l 0,0.20508 5.74218,-0.20508 0.0684,0 q 0.75196,0 1.26465,0.51269 0.5127,0.47852 0.54688,1.26465 0.0342,0.75196 -0.47852,1.26465 -0.51269,0.5127 -2.3584,0.61524 -1.8457,0.10253 -4.78515,0.10253 l 0,26.18164 q 3.11035,0.37598 4.68261,0.6836 1.57227,0.27344 1.94825,0.78613 0.37597,0.47852 0.37597,1.26465 0,0.75195 -0.58105,1.23047 -0.58106,0.44433 -1.16211,0.44433 z" id="path4345" inkscape:connector-curvature="0" class="KCEbjDaY_12"></path>
      <path d="m 296.3065,352.55682 q -2.32422,-2.0166 -2.32422,-5.05859 l 0,-39.2041 -4.88769,1.40137 0,33.73535 q 0,7.45117 4.58008,8.75 1.29883,0.34179 2.63183,0.37597 z m 1.26465,-32.57324 q 4.23828,-0.13672 8.51074,-0.47851 l 0.13672,0 q 0.75196,0 1.26465,0.54687 0.5127,0.5127 0.5127,1.19629 0,0.68359 -0.47852,1.23047 -0.44434,0.51269 -1.12793,0.58105 -5.22949,0.41016 -8.81836,0.5127 l 0,23.92578 q 0,2.05078 2.08496,2.90527 0.58106,0.23926 1.33301,0.23926 0.78613,0 1.36719,-0.47851 0.61523,-0.5127 1.02539,-1.26465 0.54687,-0.99121 0.88867,-2.32422 0.5127,-2.08496 1.94824,-2.08496 0.78614,0 1.26465,0.61523 0.5127,0.58106 0.5127,1.19629 l 0,0.37598 q -0.99121,4.5459 -3.89649,7.04101 -2.90527,2.46094 -7.17773,2.46094 -7.72461,0 -10.42481,-6.32324 -1.05957,-2.46094 -1.05957,-6.42578 l 0,-19.92676 q -1.53808,-0.10254 -3.11035,-0.20508 -1.53808,-0.10254 -2.66601,-0.23926 -2.05079,-0.20507 -2.05079,-1.81152 0,-0.78613 0.58106,-1.26465 0.61523,-0.47851 1.23047,-0.47851 l 0.13672,0 5.8789,0.41015 0,-11.62109 q 0,-0.58106 0.37598,-1.05957 0.37598,-0.5127 0.95703,-0.6836 l 8.54492,-2.29003 q 0.13672,-0.10254 0.6836,-0.10254 0.58105,0 1.05957,0.58105 0.51269,0.58106 0.51269,1.26465 l 0,13.97949 z" id="path4347" inkscape:connector-curvature="0" class="KCEbjDaY_13"></path>
      <path d="m 323.10338,351.97577 q 2.97363,0.27344 4.81933,0.37598 l 0,-43.98926 q -2.22168,0.1709 -4.81933,0.58105 l 0,43.03223 z m 31.68457,-15.55176 q 0.85449,-2.93945 0.85449,-7.28027 0,-4.375 -1.8457,-8.5791 -1.84571,-4.23829 -5.09278,-7.0752 -6.66503,-5.81055 -17.19238,-5.19531 l 0,44.05762 q 9.98047,0.30761 16.98731,-6.01563 4.54589,-4.06738 6.28906,-9.91211 z m -35.23926,-26.86523 -5.33203,1.333 q -0.78613,0 -1.26465,-0.54687 -0.47851,-0.58106 -0.47851,-1.23047 0,-1.36719 1.19628,-1.70898 0.13672,-0.0342 1.50391,-0.44434 1.40137,-0.44434 3.72559,-0.92285 6.08398,-1.29883 12.16797,-1.29883 6.11816,0 11.24511,1.60645 5.12696,1.57226 8.88672,4.75097 8.03223,6.80176 8.03223,19.10645 0,8.13476 -4.2041,14.21875 -3.86231,5.57129 -10.83496,8.64746 -6.7334,2.90527 -14.86817,2.90527 -8.27148,0 -15.03906,-2.25586 -1.19629,-0.47851 -1.19629,-1.46972 0,-0.99121 0.58105,-1.50391 0.58106,-0.5127 1.26465,-0.5127 l 4.61426,1.19629 0,-41.87011 z" id="path4349" inkscape:connector-curvature="0" class="KCEbjDaY_14"></path>
      <path d="m 377.9276,323.91425 q -8.98926,3.24707 -8.98926,13.63769 0,6.52832 4.51172,10.9375 1.40137,1.36719 3.21289,2.29004 -2.93945,-4.375 -2.93945,-11.96289 0,-5.36621 0.78613,-7.99805 1.23047,-4.16992 3.41797,-6.90429 z m -0.58106,13.43261 q 3.82813,1.19629 8.78418,1.19629 4.95606,0 9.63867,-2.08496 l 0,-0.58105 q 0,-8.27149 -5.29785,-11.41602 -1.8457,-1.09375 -4.44336,-1.46973 -8.33984,0.95704 -8.68164,14.35547 z m 21.97754,-1.53808 -0.0684,1.98242 q -0.34179,2.83691 -9.02344,4.0332 -2.76855,0.37598 -5.8789,0.37598 -3.07617,0 -6.93848,-1.05957 0.75195,7.75879 5.19531,10.49316 1.64063,0.99121 3.21289,0.99121 1.60645,0 2.7002,-0.20508 1.09375,-0.23925 2.15332,-0.64941 2.39258,-0.99121 3.34961,-2.39258 0.58105,-0.68359 1.33301,-0.68359 0.78613,0 1.33301,0.58105 0.54687,0.54688 0.54687,1.26465 0,0.6836 -0.44434,1.09375 -1.46972,2.29004 -5.46875,3.62305 -7.41699,2.42676 -14.25293,-0.41016 -7.17773,-2.93945 -10.18554,-9.91211 -1.50391,-3.41797 -1.50391,-7.55371 0,-4.16992 1.29883,-7.55371 1.29883,-3.41797 3.69141,-5.74219 4.88769,-4.78515 13.50097,-4.78515 15.44922,0.64941 15.44922,16.50879 z" id="path4351" inkscape:connector-curvature="0" class="KCEbjDaY_15"></path>
      <path d="m 417.91783,325.04218 q -1.74316,0.27343 -4.68262,0.27343 l -0.27343,0 0,25.70313 q 1.70898,0 2.93945,0 1.26465,0 2.0166,0.0684 l 0,-26.04492 z m -4.61426,-3.38379 q 3.69141,0 6.42578,-0.54688 0.78614,0 1.29883,0.58106 0.54688,0.54687 0.54688,1.23046 l 0,3.52051 q 3.99902,-5.8789 10.97168,-5.8789 7.00683,0 9.12597,8.61328 0.75196,2.93945 0.75196,5.70801 0,2.76855 -0.1709,4.81933 -0.1709,2.0166 -0.44434,4.0332 -0.47851,3.99903 -1.19629,6.9043 1.29883,0.0684 2.66602,0.13672 1.40137,0.0684 2.49512,0.1709 1.98242,0.23926 1.98242,2.0166 -0.0684,0.68359 -0.61524,1.16211 -0.54687,0.44434 -1.23046,0.44434 l -0.13672,0 q -3.28125,-0.3418 -7.17774,-0.3418 -3.8623,0 -7.24609,0.75195 -0.71777,0 -1.26465,-0.54687 -0.54687,-0.58106 -0.54687,-1.23047 0,-0.64942 0.41015,-1.16211 0.44434,-0.5127 1.46973,-0.6836 1.53808,-0.30761 5.46875,-0.64941 1.12793,-3.89648 1.53808,-8.47656 0.41016,-4.61426 0.41016,-6.28906 0,-11.82618 -6.28906,-11.82618 -4.51172,0 -7.82715,4.13575 -3.14453,3.8623 -3.14453,8.0664 l 0,0.0684 -0.0684,15.03906 q 0.61523,0.0684 1.19629,0.13672 0.58105,0.0342 1.19629,0.13672 0.64941,0.0684 1.09375,0.58106 0.47851,0.47851 0.47851,1.19629 0,0.71777 -0.58105,1.26464 -0.54688,0.54688 -0.95703,0.54688 -0.41016,0 -0.47852,-0.10254 -6.15234,-0.61523 -8.47656,-0.61523 -4.5459,0 -7.17774,0.47851 -2.63183,0.5127 -3.14453,0.5127 -0.47851,0 -0.95703,-0.58106 -0.47851,-0.58105 -0.47851,-1.23047 0,-0.64941 0.37597,-1.16211 0.37598,-0.51269 1.33301,-0.68359 1.91406,-0.37598 4.44336,-0.61523 l 0,-26.11329 q -4.58008,-0.20507 -5.22949,-0.47851 -0.6836,-0.0684 -1.12793,-0.58106 -0.41016,-0.51269 -0.41016,-1.26464 0,-0.75196 0.58106,-1.23047 0.58105,-0.5127 0.95703,-0.5127 0.41015,0 0.44433,0.0342 0.0684,0.0342 0.82032,0.10254 0.75195,0.0684 1.94824,0.1709 2.83691,0.23926 5.94726,0.23926 z" id="path4353" inkscape:connector-curvature="0" class="KCEbjDaY_16"></path>
      <path d="m 459.10435,350.71112 1.26465,0 q 0.8545,0 2.83692,0.1709 l 0,-41.3916 q -2.22168,0.20508 -4.68262,0.20508 l -0.27344,0 0,41.08398 q 0.41016,-0.0684 0.85449,-0.0684 z m 17.32911,-13.97949 q -1.02539,0.61523 -4.40918,2.08496 2.46093,8.27148 6.93847,11.31348 1.81153,1.23046 4.13575,1.23046 0.78613,0 2.32421,-0.27343 -4.71679,-2.5293 -8.98925,-14.35547 z m 11.34765,11.34765 q 1.91407,0 1.91407,-3.58886 l 0,-1.26465 q 0,-2.59766 -0.27344,-3.99902 -0.27344,-1.43555 -0.30762,-1.43555 l 0,-0.44434 q 0,-0.71777 0.5127,-1.26465 0.54687,-0.54687 1.19628,-0.54687 1.50391,0 1.81153,1.40137 0.68359,2.05078 0.68359,5.36621 0,3.28125 -0.58105,5.46875 -0.58106,2.15332 -1.84571,3.72558 -2.66601,3.41797 -7.79296,3.41797 -7.10938,0 -11.75782,-8.2373 -1.74316,-3.11035 -2.80273,-6.87012 l -1.74317,0.27344 0,11.14258 q 1.77735,0.20507 2.8711,0.34179 1.94824,0.27344 1.94824,1.81153 0,0.85449 -0.58105,1.333 -0.58106,0.47852 -1.16211,0.47852 l -0.27344,0 q -5.74219,-0.82031 -10.04883,-0.82031 -4.27246,0 -8.30566,0.82031 l -0.3418,0 q -0.78613,0 -1.29883,-0.58106 -0.51269,-0.54687 -0.51269,-1.19628 0,-1.40137 1.46972,-1.77735 2.05078,-0.41015 4.13575,-0.61523 l 0,-41.45996 q 0,0 -5.26368,-0.41016 -0.68359,-0.10254 -1.12793,-0.61523 -0.41015,-0.5127 -0.41015,-1.26465 0,-0.78614 0.61523,-1.23047 0.61524,-0.47852 1.19629,-0.47852 l 0.20508,0 q 0.0342,0 0.78613,0.10254 0.75195,0.0684 1.98242,0.1709 2.93946,0.30762 5.91309,0.30762 3.8623,0 6.08398,-0.58106 l 0.37598,0 q 0.78613,0 1.29883,0.54688 0.51269,0.54687 0.51269,1.23047 l 0,29.18945 q 5.40039,-1.05957 9.2627,-3.8623 3.89648,-2.83692 6.28906,-8.03223 l -0.78613,0 -4.47754,-0.23926 q -0.68359,-0.10254 -1.12793,-0.61523 -0.41016,-0.5127 -0.41016,-1.26465 0,-0.78613 0.61524,-1.23047 0.61523,-0.44434 1.19629,-0.44434 l 0.20508,0 3.99902,0.20508 q 5.26367,0 8.54492,-1.46972 0.30762,-0.20508 0.88867,-0.20508 0.58106,0 1.09375,0.58105 0.54688,0.54688 0.54688,1.16211 0,1.26465 -1.05957,1.67481 -2.25586,1.09375 -5.26367,1.53808 -2.29004,6.32324 -6.83594,10.15137 3.17871,9.33105 6.28906,12.50976 1.02539,1.09375 1.94824,1.09375 z" id="path4355" inkscape:connector-curvature="0" class="KCEbjDaY_17"></path>
      <path d="m 512.93736,324.70038 q -1.74316,0.27344 -4.68261,0.27344 l -0.27344,0 0,25.7373 q 0.64941,-0.0684 1.26465,-0.0684 1.23047,0 2.15332,0 0.92285,0 1.53808,0.0684 l 0,-26.01074 z m -0.41015,-14.28711 q 0,-1.05957 -0.75196,-1.77734 -0.71777,-0.75196 -1.77734,-0.75196 -1.05957,0 -1.77734,0.75196 -0.71778,0.71777 -0.71778,1.77734 0,1.05957 0.71778,1.77734 0.71777,0.71778 1.77734,0.71778 1.05957,0 1.77734,-0.71778 0.75196,-0.71777 0.75196,-1.77734 z m 8.54492,44.94629 q -5.63965,-1.12793 -10.52735,-1.12793 -4.88769,0 -10.52734,1.12793 -0.78613,0 -1.29883,-0.58106 -0.47851,-0.58105 -0.47851,-1.23047 0,-0.64941 0.37597,-1.1621 0.41016,-0.5127 1.29883,-0.6836 0.92285,-0.20508 2.11914,-0.3418 1.23047,-0.17089 2.39258,-0.34179 l 0,-26.18164 -5.26367,-0.44434 q -0.6836,-0.10254 -1.12793,-0.61523 -0.41016,-0.5127 -0.41016,-1.26465 0,-0.78613 0.61524,-1.23047 0.61523,-0.44434 1.19629,-0.44434 l 0.20507,0 q 0.0342,0 0.78614,0.10254 0.75195,0.0684 1.94824,0.1709 3.24707,0.27344 5.94726,0.27344 3.75977,0 6.08399,-0.54688 l 0.37598,0 q 0.78613,0 1.29882,0.54688 0.5127,0.51269 0.5127,1.19629 l -0.0684,28.4375 q 1.19629,0.1709 2.39258,0.34179 1.23047,0.13672 2.1875,0.3418 1.77734,0.3418 1.77734,1.81152 0,0.78614 -0.58105,1.29883 -0.58106,0.54688 -1.23047,0.54688 z m -4.95606,-44.94629 q 0,2.56348 -1.77734,4.30664 -1.8457,1.77734 -4.34082,1.77734 -2.5293,0 -4.30664,-1.77734 -1.77734,-1.77734 -1.77734,-4.30664 0,-2.5293 1.77734,-4.30664 1.77734,-1.77735 4.30664,-1.77735 2.49512,0 4.34082,1.77735 1.77734,1.74316 1.77734,4.30664 z" id="path4357" inkscape:connector-curvature="0" class="KCEbjDaY_18"></path>
    </g>
  </g>
<style>.KCEbjDaY_0{stroke-dasharray:542 544;stroke-dashoffset:543;animation:KCEbjDaY_draw 2000ms linear 0ms forwards;}.KCEbjDaY_1{stroke-dasharray:273 275;stroke-dashoffset:274;animation:KCEbjDaY_draw 2000ms linear 55ms forwards;}.KCEbjDaY_2{stroke-dasharray:244 246;stroke-dashoffset:245;animation:KCEbjDaY_draw 2000ms linear 111ms forwards;}.KCEbjDaY_3{stroke-dasharray:271 273;stroke-dashoffset:272;animation:KCEbjDaY_draw 2000ms linear 166ms forwards;}.KCEbjDaY_4{stroke-dasharray:261 263;stroke-dashoffset:262;animation:KCEbjDaY_draw 2000ms linear 222ms forwards;}.KCEbjDaY_5{stroke-dasharray:420 422;stroke-dashoffset:421;animation:KCEbjDaY_draw 2000ms linear 277ms forwards;}.KCEbjDaY_6{stroke-dasharray:273 275;stroke-dashoffset:274;animation:KCEbjDaY_draw 2000ms linear 333ms forwards;}.KCEbjDaY_7{stroke-dasharray:275 277;stroke-dashoffset:276;animation:KCEbjDaY_draw 2000ms linear 388ms forwards;}.KCEbjDaY_8{stroke-dasharray:261 263;stroke-dashoffset:262;animation:KCEbjDaY_draw 2000ms linear 444ms forwards;}.KCEbjDaY_9{stroke-dasharray:363 365;stroke-dashoffset:364;animation:KCEbjDaY_draw 2000ms linear 500ms forwards;}.KCEbjDaY_10{stroke-dasharray:269 271;stroke-dashoffset:270;animation:KCEbjDaY_draw 2000ms linear 555ms forwards;}.KCEbjDaY_11{stroke-dasharray:317 319;stroke-dashoffset:318;animation:KCEbjDaY_draw 2000ms linear 611ms forwards;}.KCEbjDaY_12{stroke-dasharray:311 313;stroke-dashoffset:312;animation:KCEbjDaY_draw 2000ms linear 666ms forwards;}.KCEbjDaY_13{stroke-dasharray:275 277;stroke-dashoffset:276;animation:KCEbjDaY_draw 2000ms linear 722ms forwards;}.KCEbjDaY_14{stroke-dasharray:398 400;stroke-dashoffset:399;animation:KCEbjDaY_draw 2000ms linear 777ms forwards;}.KCEbjDaY_15{stroke-dasharray:273 275;stroke-dashoffset:274;animation:KCEbjDaY_draw 2000ms linear 833ms forwards;}.KCEbjDaY_16{stroke-dasharray:306 308;stroke-dashoffset:307;animation:KCEbjDaY_draw 2000ms linear 888ms forwards;}.KCEbjDaY_17{stroke-dasharray:432 434;stroke-dashoffset:433;animation:KCEbjDaY_draw 2000ms linear 944ms forwards;}.KCEbjDaY_18{stroke-dasharray:241 243;stroke-dashoffset:242;animation:KCEbjDaY_draw 2000ms linear 1000ms forwards;}@keyframes KCEbjDaY_draw{100%{stroke-dashoffset:0;}}@keyframes KCEbjDaY_fade{0%{stroke-opacity:1;}94.44444444444444%{stroke-opacity:1;}100%{stroke-opacity:0;}}</style></svg>
