<?xml version="1.0" encoding="UTF-8" standalone="no"?>
<!-- Created with Inkscape (http://www.inkscape.org/) -->

<svg
   xmlns:dc="http://purl.org/dc/elements/1.1/"
   xmlns:cc="http://creativecommons.org/ns#"
   xmlns:rdf="http://www.w3.org/1999/02/22-rdf-syntax-ns#"
   xmlns:svg="http://www.w3.org/2000/svg"
   xmlns="http://www.w3.org/2000/svg"
   xmlns:sodipodi="http://sodipodi.sourceforge.net/DTD/sodipodi-0.dtd"
   xmlns:inkscape="http://www.inkscape.org/namespaces/inkscape"
   width="298.59882mm"
   height="164.77754mm"
   viewBox="0 0 1058.0273 583.85743"
   id="svg2"
   version="1.1"
   inkscape:version="0.91 r13725"
   sodipodi:docname="nuri6.svg">
  <defs
     id="defs4" />
  <sodipodi:namedview
     id="base"
     pagecolor="#ffffff"
     bordercolor="#666666"
     borderopacity="1.0"
     inkscape:pageopacity="0.0"
     inkscape:pageshadow="2"
     inkscape:zoom="0.49497475"
     inkscape:cx="153.95311"
     inkscape:cy="403.65085"
     inkscape:document-units="px"
     inkscape:current-layer="layer1"
     showgrid="false"
     fit-margin-top="0"
     fit-margin-left="0"
     fit-margin-right="0"
     fit-margin-bottom="0"
     inkscape:window-width="1600"
     inkscape:window-height="838"
     inkscape:window-x="-8"
     inkscape:window-y="-8"
     inkscape:window-maximized="1" />
  <metadata
     id="metadata7">
    <rdf:RDF>
      <cc:Work
         rdf:about="">
        <dc:format>image/svg+xml</dc:format>
        <dc:type
           rdf:resource="http://purl.org/dc/dcmitype/StillImage" />
        <dc:title></dc:title>
      </cc:Work>
    </rdf:RDF>
  </metadata>
  <g
     inkscape:label="レイヤー 1"
     inkscape:groupmode="layer"
     id="layer1"
     transform="translate(-91.428574,-72.613312)">
    <text
       xml:space="preserve"
       style="font-size:180px;line-height:125%;font-family:'Ribeye Marrow';-inkscape-font-specification:'Ribeye Marrow, Normal';text-align:start;letter-spacing:0px;word-spacing:0px;fill:#000000;fill-opacity:0.97849464;stroke-width:1px"
       x="91.428574"
       y="200.93362"
       id="text4136"
       sodipodi:linespacing="125%"><tspan
         sodipodi:role="line"
         id="tspan4138"
         x="91.428574"
         y="200.93362">  Welcome</tspan><tspan
         sodipodi:role="line"
         x="91.428574"
         y="425.93362"
         id="tspan4140">        to</tspan><tspan
         sodipodi:role="line"
         x="91.428574"
         y="650.93359"
         id="tspan4142">CraftDenki</tspan></text>
    <path
       style="color:#000000;overflow:visible;color-interpolation-filters:linearRGB;solid-opacity:1;fill:#000000;fill-opacity:0;stroke:#000000;stroke-width:2.62857151;stroke-linejoin:round;stroke-opacity:0;image-rendering:auto;text-rendering:auto;enable-background:accumulate"
       d="M 153.83327,95.821261 C 142.48945,68.176372 139.53705,58.559332 134.86259,34.02684 c -3.62557,-19.027684 -3.55309,-20.563651 0.97026,-20.563651 3.76814,0 5.68426,4.31875 8.36066,18.844116 3.31513,17.991864 12.67441,49.172099 20.70346,68.973125 2.70424,6.66913 2.88171,10.11315 0.63679,12.35807 -2.24492,2.24492 -5.50567,-2.72049 -11.70049,-17.817239 z"
       id="path4144"
       inkscape:connector-curvature="0"
       transform="translate(91.428574,72.613312)" />
    <path
       style="color:#000000;overflow:visible;color-interpolation-filters:linearRGB;solid-opacity:1;fill:#000000;fill-opacity:0;stroke:#000000;stroke-width:2.629;stroke-linejoin:round;stroke-opacity:0;image-rendering:auto;text-rendering:auto;enable-background:accumulate"
       d="M 153.83327,95.821261 C 142.48945,68.176372 139.53705,58.559332 134.86259,34.02684 c -3.62557,-19.027684 -3.55309,-20.563651 0.97026,-20.563651 3.76814,0 5.68426,4.31875 8.36066,18.844116 3.31513,17.991864 12.67441,49.172099 20.70346,68.973125 2.70424,6.66913 2.88171,10.11315 0.63679,12.35807 -2.24492,2.24492 -5.50567,-2.72049 -11.70049,-17.817239 z"
       id="path4146"
       inkscape:connector-curvature="0"
       transform="translate(91.428574,72.613312)" />
    <path
       style="color:#000000;overflow:visible;color-interpolation-filters:linearRGB;solid-opacity:1;fill:#000000;fill-opacity:0;stroke:#000000;stroke-width:0.16428572;stroke-linejoin:round;stroke-opacity:0;image-rendering:auto;text-rendering:auto;enable-background:accumulate"
       d="m 161.87179,116.50486 c -5.76614,-10.771 -9.82155,-19.805113 -14.52313,-32.352666 -8.36702,-22.329902 -14.15728,-45.669192 -17.13932,-69.084879 -0.20482,-1.60829 -0.34898,-2.944381 -0.32037,-2.96909 0.0286,-0.02471 2.82128,-0.07491 6.20591,-0.111551 l 6.15389,-0.06662 0.31797,2.5 c 2.58606,20.332432 7.14949,41.269903 12.6492,58.035714 3.87504,11.813032 8.89049,23.710816 13.79807,32.732112 0.65717,1.20802 1.19484,2.30504 1.19484,2.43782 0,0.38763 -4.18404,9.2688 -5.57119,11.82559 l -0.59823,1.10266 -2.16764,-4.04909 z"
       id="path4148"
       inkscape:connector-curvature="0"
       transform="translate(91.428574,72.613312)" />
    <path
       style="color:#000000;overflow:visible;color-interpolation-filters:linearRGB;solid-opacity:1;fill:#000000;fill-opacity:0;stroke:#000000;stroke-width:0.16428572;stroke-linejoin:round;stroke-opacity:0;image-rendering:auto;text-rendering:auto;enable-background:accumulate"
       d="m 161.87179,116.50486 c -5.76614,-10.771 -9.82155,-19.805113 -14.52313,-32.352666 -8.36702,-22.329902 -14.15728,-45.669192 -17.13932,-69.084879 -0.20482,-1.60829 -0.34898,-2.944381 -0.32037,-2.96909 0.0286,-0.02471 2.82128,-0.07491 6.20591,-0.111551 l 6.15389,-0.06662 0.31797,2.5 c 2.58606,20.332432 7.14949,41.269903 12.6492,58.035714 3.87504,11.813032 8.89049,23.710816 13.79807,32.732112 0.65717,1.20802 1.19484,2.30504 1.19484,2.43782 0,0.38763 -4.18404,9.2688 -5.57119,11.82559 l -0.59823,1.10266 -2.16764,-4.04909 z"
       id="path4150"
       inkscape:connector-curvature="0"
       transform="translate(91.428574,72.613312)" />
    <path
       style="color:#000000;overflow:visible;color-interpolation-filters:linearRGB;solid-opacity:1;fill:#000000;fill-opacity:0;stroke:#000000;stroke-width:0.16428572;stroke-linejoin:round;stroke-opacity:0;image-rendering:auto;text-rendering:auto;enable-background:accumulate"
       d="m 161.87179,116.50486 c -5.76614,-10.771 -9.82155,-19.805113 -14.52313,-32.352666 -8.36702,-22.329902 -14.15728,-45.669192 -17.13932,-69.084879 -0.20482,-1.60829 -0.34898,-2.944381 -0.32037,-2.96909 0.0286,-0.02471 2.82128,-0.07491 6.20591,-0.111551 l 6.15389,-0.06662 0.31797,2.5 c 2.58606,20.332432 7.14949,41.269903 12.6492,58.035714 3.87504,11.813032 8.89049,23.710816 13.79807,32.732112 0.65717,1.20802 1.19484,2.30504 1.19484,2.43782 0,0.38763 -4.18404,9.2688 -5.57119,11.82559 l -0.59823,1.10266 -2.16764,-4.04909 z"
       id="path4152"
       inkscape:connector-curvature="0"
       transform="translate(91.428574,72.613312)" />
    <path
       style="color:#000000;overflow:visible;color-interpolation-filters:linearRGB;solid-opacity:1;fill:#ff0000;fill-opacity:0;stroke:#000000;stroke-width:0.16428572;stroke-linejoin:round;stroke-opacity:0;image-rendering:auto;text-rendering:auto;enable-background:accumulate"
       d="m 161.87179,116.50486 c -5.76614,-10.771 -9.82155,-19.805113 -14.52313,-32.352666 -8.36702,-22.329902 -14.15728,-45.669192 -17.13932,-69.084879 -0.20482,-1.60829 -0.34898,-2.944381 -0.32037,-2.96909 0.0286,-0.02471 2.82128,-0.07491 6.20591,-0.111551 l 6.15389,-0.06662 0.31797,2.5 c 2.58606,20.332432 7.14949,41.269903 12.6492,58.035714 3.87504,11.813032 8.89049,23.710816 13.79807,32.732112 0.65717,1.20802 1.19484,2.30504 1.19484,2.43782 0,0.38763 -4.18404,9.2688 -5.57119,11.82559 l -0.59823,1.10266 -2.16764,-4.04909 z"
       id="path4154"
       inkscape:connector-curvature="0"
       transform="translate(91.428574,72.613312)" />
    <path
       style="color:#000000;overflow:visible;color-interpolation-filters:linearRGB;solid-opacity:1;fill:#000000;fill-opacity:0;stroke:#000000;stroke-width:0.16428572;stroke-linejoin:round;stroke-opacity:0;image-rendering:auto;text-rendering:auto;enable-background:accumulate"
       d="m 161.87179,116.50486 c -5.76614,-10.771 -9.82155,-19.805113 -14.52313,-32.352666 -8.36702,-22.329902 -14.15728,-45.669192 -17.13932,-69.084879 -0.20482,-1.60829 -0.34898,-2.944381 -0.32037,-2.96909 0.0286,-0.02471 2.82128,-0.07491 6.20591,-0.111551 l 6.15389,-0.06662 0.31797,2.5 c 2.58606,20.332432 7.14949,41.269903 12.6492,58.035714 3.87504,11.813032 8.89049,23.710816 13.79807,32.732112 0.65717,1.20802 1.19484,2.30504 1.19484,2.43782 0,0.38763 -4.18404,9.2688 -5.57119,11.82559 l -0.59823,1.10266 -2.16764,-4.04909 z"
       id="path4156"
       inkscape:connector-curvature="0"
       transform="translate(91.428574,72.613312)" />
    <path
       style="color:#000000;overflow:visible;color-interpolation-filters:linearRGB;solid-opacity:1;fill:#000000;fill-opacity:0;stroke:#000000;stroke-width:0.16428572;stroke-linejoin:round;stroke-opacity:0;image-rendering:auto;text-rendering:auto;enable-background:accumulate"
       d="m 161.87179,116.50486 c -5.76614,-10.771 -9.82155,-19.805113 -14.52313,-32.352666 -8.36702,-22.329902 -14.15728,-45.669192 -17.13932,-69.084879 -0.20482,-1.60829 -0.34898,-2.944381 -0.32037,-2.96909 0.0286,-0.02471 2.82128,-0.07491 6.20591,-0.111551 l 6.15389,-0.06662 0.31797,2.5 c 2.58606,20.332432 7.14949,41.269903 12.6492,58.035714 3.87504,11.813032 8.89049,23.710816 13.79807,32.732112 0.65717,1.20802 1.19484,2.30504 1.19484,2.43782 0,0.38763 -4.18404,9.2688 -5.57119,11.82559 l -0.59823,1.10266 -2.16764,-4.04909 z"
       id="path4158"
       inkscape:connector-curvature="0"
       transform="translate(91.428574,72.613312)" />
    <path
       style="color:#000000;overflow:visible;color-interpolation-filters:linearRGB;solid-opacity:1;fill:#000000;fill-opacity:0;stroke:#000000;stroke-width:0.16428572;stroke-linejoin:round;stroke-opacity:0;image-rendering:auto;text-rendering:auto;enable-background:accumulate"
       d="m 161.87179,116.50486 c -5.76614,-10.771 -9.82155,-19.805113 -14.52313,-32.352666 -8.36702,-22.329902 -14.15728,-45.669192 -17.13932,-69.084879 -0.20482,-1.60829 -0.34898,-2.944381 -0.32037,-2.96909 0.0286,-0.02471 2.82128,-0.07491 6.20591,-0.111551 l 6.15389,-0.06662 0.31797,2.5 c 2.58606,20.332432 7.14949,41.269903 12.6492,58.035714 3.87504,11.813032 8.89049,23.710816 13.79807,32.732112 0.65717,1.20802 1.19484,2.30504 1.19484,2.43782 0,0.38763 -4.18404,9.2688 -5.57119,11.82559 l -0.59823,1.10266 -2.16764,-4.04909 z"
       id="path4160"
       inkscape:connector-curvature="0"
       transform="translate(91.428574,72.613312)" />
    <path
       style="color:#000000;overflow:visible;color-interpolation-filters:linearRGB;solid-opacity:1;fill:#000000;fill-opacity:0;stroke:#000000;stroke-width:0.16428572;stroke-linejoin:round;stroke-opacity:0;image-rendering:auto;text-rendering:auto;enable-background:accumulate"
       d="m 161.87179,116.50486 c -5.76614,-10.771 -9.82155,-19.805113 -14.52313,-32.352666 -8.36702,-22.329902 -14.15728,-45.669192 -17.13932,-69.084879 -0.20482,-1.60829 -0.34898,-2.944381 -0.32037,-2.96909 0.0286,-0.02471 2.82128,-0.07491 6.20591,-0.111551 l 6.15389,-0.06662 0.31797,2.5 c 2.58606,20.332432 7.14949,41.269903 12.6492,58.035714 3.87504,11.813032 8.89049,23.710816 13.79807,32.732112 0.65717,1.20802 1.19484,2.30504 1.19484,2.43782 0,0.38763 -4.18404,9.2688 -5.57119,11.82559 l -0.59823,1.10266 -2.16764,-4.04909 z"
       id="path4162"
       inkscape:connector-curvature="0"
       transform="translate(91.428574,72.613312)" />
    <path
       style="color:#000000;overflow:visible;color-interpolation-filters:linearRGB;solid-opacity:1;fill:#000000;fill-opacity:0.97849464;stroke:#000000;stroke-width:0.16428572;stroke-linejoin:round;stroke-opacity:0;image-rendering:auto;text-rendering:auto;enable-background:accumulate"
       d="m 161.87179,116.50486 c -5.76614,-10.771 -9.82155,-19.805113 -14.52313,-32.352666 -8.36702,-22.329902 -14.15728,-45.669192 -17.13932,-69.084879 -0.20482,-1.60829 -0.34898,-2.944381 -0.32037,-2.96909 0.0286,-0.02471 2.82128,-0.07491 6.20591,-0.111551 l 6.15389,-0.06662 0.31797,2.5 c 2.58606,20.332432 7.14949,41.269903 12.6492,58.035714 3.87504,11.813032 8.89049,23.710816 13.79807,32.732112 0.65717,1.20802 1.19484,2.30504 1.19484,2.43782 0,0.38763 -4.18404,9.2688 -5.57119,11.82559 l -0.59823,1.10266 -2.16764,-4.04909 z"
       id="path4164"
       inkscape:connector-curvature="0"
       transform="translate(91.428574,72.613312)" />
    <path
       style="color:#000000;overflow:visible;color-interpolation-filters:linearRGB;solid-opacity:1;fill:#000000;fill-opacity:0.96774191;stroke:#000000;stroke-width:0.16428572;stroke-linejoin:round;stroke-opacity:0;image-rendering:auto;text-rendering:auto;enable-background:accumulate"
       d="M 222.03182,119.92014 C 211.97713,103.42856 202.48701,81.98411 197.62208,64.762415 l -0.65995,-2.336205 1.26167,-4.62808 c 1.16798,-4.284425 2.93006,-11.344719 3.70957,-14.863462 l 0.32906,-1.485382 1.05342,3.717525 c 5.26519,18.580709 13.42482,39.154868 23.9672,60.432219 l 2.3537,4.75041 -2.92412,6.03417 c -1.60827,3.3188 -2.95682,6.06687 -2.99678,6.10683 -0.04,0.04 -0.79777,-1.11667 -1.68403,-2.5703 z"
       id="path4166"
       inkscape:connector-curvature="0"
       transform="translate(91.428574,72.613312)" />
    <path
       style="color:#000000;overflow:visible;color-interpolation-filters:linearRGB;solid-opacity:1;fill:#000000;fill-opacity:0.96774191;stroke:#000000;stroke-width:0.65714288;stroke-linejoin:round;stroke-opacity:0;image-rendering:auto;text-rendering:auto;enable-background:accumulate"
       d="m 303.20419,113.4556 c -8.50568,-7.64734 -12.37013,-16.688843 -12.35044,-28.895896 0.0188,-11.664682 2.72712,-19.556727 8.8859,-25.89365 2.75472,-2.834398 9.88604,-7.651607 11.35613,-7.671076 0.27838,-0.0037 -0.73877,2.323654 -2.26033,5.171869 -4.69984,8.797682 -5.85941,13.667396 -6.2768,26.359941 -0.49632,15.09271 0.64132,22.365872 5.15013,32.925772 0.90783,2.1262 -0.72255,1.40343 -4.50459,-1.99696 z"
       id="path4168"
       inkscape:connector-curvature="0"
       transform="translate(91.428574,72.613312)" />
    <path
       style="color:#000000;overflow:visible;color-interpolation-filters:linearRGB;solid-opacity:1;fill:#000000;fill-opacity:0.97849464;stroke:#000000;stroke-width:0.65714288;stroke-linejoin:round;stroke-opacity:0;image-rendering:auto;text-rendering:auto;enable-background:accumulate"
       d="m 400.9468,65.27399 0,-52.857143 4.46428,-0.0098 c 2.45536,-0.0054 5.1875,-0.203567 6.07143,-0.440451 l 1.60714,-0.430697 0,53.297594 0,53.297587 -6.07143,0 -6.07142,0 0,-52.857136 z"
       id="path4170"
       inkscape:connector-curvature="0"
       transform="translate(91.428574,72.613312)" />
    <path
       style="color:#000000;overflow:visible;color-interpolation-filters:linearRGB;solid-opacity:1;fill:#000000;fill-opacity:0.99641579;stroke:#000000;stroke-width:0.65714288;stroke-linejoin:round;stroke-opacity:0;image-rendering:auto;text-rendering:auto;enable-background:accumulate"
       d="m 473.75147,119.05818 c -2.13186,-1.0538 -5.82394,-3.86313 -8.20462,-6.24295 -7.19381,-7.19121 -9.58536,-13.888837 -9.57917,-26.826955 0.005,-9.59268 1.25673,-16.295914 4.23152,-22.652895 2.83039,-6.048388 8.91936,-12.116129 15.13543,-15.082644 2.60974,-1.245453 4.93956,-2.264461 5.17738,-2.264461 0.23783,0 -0.70463,1.582683 -2.09435,3.517073 -7.85751,10.93708 -12.11589,33.304664 -9.34992,49.111493 1.39966,7.998739 3.34475,13.364479 6.59603,18.195859 1.35515,2.01374 2.35139,3.77388 2.21385,3.91142 -0.13753,0.13753 -1.9943,-0.61214 -4.12615,-1.66594 z"
       id="path4172"
       inkscape:connector-curvature="0"
       transform="translate(91.428574,72.613312)" />
    <path
       style="color:#000000;overflow:visible;color-interpolation-filters:linearRGB;solid-opacity:1;fill:#000000;fill-opacity:0.97491038;stroke:#000000;stroke-width:0.92934036;stroke-linejoin:round;stroke-opacity:0;image-rendering:auto;text-rendering:auto;enable-background:accumulate"
       d="m 572.31508,115.10624 c -17.87908,-13.63683 -17.02146,-48.547415 1.50577,-61.294486 2.48351,-1.708701 4.75917,-3.10673 5.05702,-3.10673 0.29785,0 -0.39632,1.589563 -1.5426,3.532361 -7.33478,12.431515 -8.49805,40.053083 -2.39493,56.866975 1.33793,3.68596 2.2848,6.84955 2.10416,7.03019 -0.18064,0.18064 -2.30888,-1.1821 -4.72942,-3.02831 z"
       id="path4174"
       inkscape:connector-curvature="0"
       transform="translate(91.428574,72.613312)" />
    <path
       style="color:#000000;overflow:visible;color-interpolation-filters:linearRGB;solid-opacity:1;fill:#000000;fill-opacity:0;stroke:#000000;stroke-width:0.92934036;stroke-linejoin:round;stroke-opacity:0;image-rendering:auto;text-rendering:auto;enable-background:accumulate"
       d="m 679.49265,86.56544 0,-31.819805 3.78807,-0.01379 c 2.08344,-0.0076 4.81085,-0.287887 6.06091,-0.622891 l 2.27285,-0.609099 0,32.442697 0,32.442688 -6.06092,0 -6.06091,0 0,-31.819796 z"
       id="path4176"
       inkscape:connector-curvature="0"
       transform="translate(91.428574,72.613312)" />
    <path
       style="color:#000000;overflow:visible;color-interpolation-filters:linearRGB;solid-opacity:1;fill:#000000;fill-opacity:0.95698923;stroke:#000000;stroke-width:0.92934036;stroke-linejoin:round;stroke-opacity:0;image-rendering:auto;text-rendering:auto;enable-background:accumulate"
       d="m 845.653,111.86268 c -7.08294,-7.08294 -9.9913,-14.186615 -10.42795,-25.470247 -0.43157,-11.152257 1.38838,-18.436104 6.18685,-24.761158 2.98708,-3.937402 12.60206,-11.498042 13.49133,-10.608773 0.19849,0.198486 -0.9923,2.822023 -2.6462,5.83008 -4.80852,8.745599 -6.43243,18.120091 -5.82375,33.619394 0.38989,9.927964 1.05815,14.769304 2.65576,19.240174 1.17412,3.28577 1.93821,6.17069 1.69797,6.41093 -0.24025,0.24024 -2.55055,-1.67694 -5.13401,-4.2604 z"
       id="path4178"
       inkscape:connector-curvature="0"
       transform="translate(91.428574,72.613312)" />
    <path
       style="color:#000000;overflow:visible;color-interpolation-filters:linearRGB;solid-opacity:1;fill:#000000;fill-opacity:0.96774191;stroke:#000000;stroke-width:0.92934036;stroke-linejoin:round;stroke-opacity:0;image-rendering:auto;text-rendering:auto;enable-background:accumulate"
       d="m 679.49265,86.56544 0,-31.819805 3.78807,-0.01379 c 2.08344,-0.0076 4.81085,-0.287887 6.06091,-0.622891 l 2.27285,-0.609099 0,32.442697 0,32.442688 -6.06092,0 -6.06091,0 0,-31.819796 z"
       id="path4180"
       inkscape:connector-curvature="0"
       transform="translate(91.428574,72.613312)" />
    <path
       style="color:#000000;overflow:visible;color-interpolation-filters:linearRGB;solid-opacity:1;fill:#000000;fill-opacity:0.98566306;stroke:#000000;stroke-width:0.92934036;stroke-linejoin:round;stroke-opacity:0;image-rendering:auto;text-rendering:auto;enable-background:accumulate"
       d="m 472.91645,346.2639 c -3.67379,-1.63283 -6.9863,-5.10418 -8.76056,-9.18063 -1.00771,-2.31526 -1.39395,-14.26802 -1.63661,-50.64677 l -0.31763,-47.61632 4.77974,-1.62862 c 2.62885,-0.89574 5.3806,-1.62862 6.11501,-1.62862 1.08967,0 1.33528,9.57654 1.33528,52.0631 0,50.2442 0.0713,52.20286 2.04084,56.06347 2.24809,4.40663 1.60838,4.86974 -3.55607,2.57439 z"
       id="path4182"
       inkscape:connector-curvature="0"
       transform="translate(91.428574,72.613312)" />
    <path
       style="color:#000000;overflow:visible;color-interpolation-filters:linearRGB;solid-opacity:1;fill:#000000;fill-opacity:0.99283153;stroke:#000000;stroke-width:0.92934036;stroke-linejoin:round;stroke-opacity:0;image-rendering:auto;text-rendering:auto;enable-background:accumulate"
       d="m 545.89606,340.72196 c -7.14255,-5.40798 -11.14256,-12.45447 -12.94482,-22.8038 -2.6926,-15.46203 2.63216,-30.91231 13.3768,-38.81401 2.3447,-1.72431 4.5961,-3.13511 5.00313,-3.13511 0.40702,0 -0.37908,2.00232 -1.74689,4.44959 -7.18429,12.85409 -7.32478,45.46808 -0.25607,59.44256 2.28508,4.51748 1.61829,4.68471 -3.43215,0.86077 z"
       id="path4184"
       inkscape:connector-curvature="0"
       transform="translate(91.428574,72.613312)" />
    <path
       style="color:#000000;overflow:visible;color-interpolation-filters:linearRGB;solid-opacity:1;fill:#000000;fill-opacity:0.98566306;stroke:#000000;stroke-width:0.92934036;stroke-linejoin:round;stroke-opacity:0;image-rendering:auto;text-rendering:auto;enable-background:accumulate"
       d="m 36.54009,560.63814 c -15.858334,-12.9656 -21.590562,-35.9593 -15.536374,-62.32111 2.264797,-9.86162 7.769408,-19.38582 15.247079,-26.38081 3.562104,-3.33218 6.881328,-6.0585 7.376052,-6.0585 0.494724,0 -0.674443,2.61377 -2.598148,5.80838 -7.872455,13.07341 -11.621747,34.38991 -9.626741,54.73256 1.374672,14.01721 3.357511,21.88665 7.762929,30.80927 1.901554,3.85136 3.286487,7.17336 3.077627,7.38222 -0.20886,0.20886 -2.77495,-1.57854 -5.702424,-3.97201 z"
       id="path4186"
       inkscape:connector-curvature="0"
       transform="translate(91.428574,72.613312)" />
    <path
       style="color:#000000;overflow:visible;color-interpolation-filters:linearRGB;solid-opacity:1;fill:#000000;fill-opacity:0.98566306;stroke:#000000;stroke-width:0.92934036;stroke-linejoin:round;stroke-opacity:0;image-rendering:auto;text-rendering:auto;enable-background:accumulate"
       d="m 164.88189,535.07317 0,-31.81981 3.78807,-0.0138 c 2.08344,-0.008 4.81085,-0.28789 6.06092,-0.62289 l 2.27284,-0.6091 0,32.4427 0,32.4427 -6.06091,0 -6.06092,0 0,-31.81981 z"
       id="path4188"
       inkscape:connector-curvature="0"
       transform="translate(91.428574,72.613312)" />
    <path
       style="color:#000000;overflow:visible;color-interpolation-filters:linearRGB;solid-opacity:1;fill:#000000;fill-opacity:0.98207885;stroke:#000000;stroke-width:0.92934036;stroke-linejoin:round;stroke-opacity:0;image-rendering:auto;text-rendering:auto;enable-background:accumulate"
       d="m 140.89077,576.8787 c -1.6221,-1.66799 -1.6221,-4.58892 0,-5.61258 0.69448,-0.43827 4.21738,-1.28576 7.82868,-1.88332 l 6.56599,-1.08647 0.26618,-32.89756 0.26617,-32.89756 -3.17036,-0.63408 c -1.7437,-0.34874 -4.93182,-0.63407 -7.08471,-0.63407 -2.56747,0 -4.6095,-0.69516 -5.93464,-2.02031 -2.47643,-2.47642 -2.51577,-3.29649 -0.25254,-5.26524 1.51738,-1.31996 3.7432,-1.40375 15.71475,-0.59157 9.28496,0.62991 16.19303,0.59651 20.66629,-0.0999 8.26282,-1.2864 10.33851,-0.0279 10.33851,6.26824 l 0,4.03901 3.5924,-3.69897 c 13.07944,-13.46747 36.63464,-10.30268 44.02048,5.91444 3.86845,8.49398 1.65293,20.59584 -4.68295,25.57963 -9.14719,7.19519 -23.73703,-0.0942 -23.73703,-11.85943 0,-7.88159 6.1728,-15.23543 12.78859,-15.23543 4.67558,0 4.00235,-2.08738 -1.24914,-3.87299 -4.87221,-1.65666 -12.5867,-0.92189 -16.92544,1.61207 -4.78736,2.79597 -9.51088,9.69259 -11.79939,17.22782 -1.8277,6.01796 -2.02068,9.04978 -1.77644,27.909 l 0.274,21.15763 6.89354,1.12748 c 8.17557,1.33716 11.09184,4.38036 7.25175,7.56736 -1.20504,1.00009 -3.85191,0.99412 -13.03504,-0.0294 -10.7969,-1.2034 -26.77022,-0.95437 -40.5062,0.63151 -3.45682,0.3991 -5.44925,0.17337 -6.31345,-0.71528 z m 30.30457,-9.72349 -6.31345,-0.35864 0,-31.7716 0,-31.77161 5.49622,0 c 3.10674,0 5.81377,-0.51379 6.22663,-1.18181 0.49798,-0.80575 0.16922,-0.96647 -1.03316,-0.50508 -0.96995,0.37221 -3.99922,0.67674 -6.7317,0.67674 l -4.96814,0 0,32.82996 0,32.82996 6.81853,-0.19464 6.81853,-0.19463 -6.31346,-0.35865 z m 55.25954,-46.02044 c 0.93067,-2.66973 0.80374,-3.59794 -0.78424,-5.7351 -3.9165,-5.27096 -12.30143,-2.96859 -12.30143,3.37778 0,7.87108 10.50393,9.76331 13.08567,2.35732 z"
       id="path4190"
       inkscape:connector-curvature="0"
       transform="translate(91.428574,72.613312)" />
    <path
       style="color:#000000;overflow:visible;color-interpolation-filters:linearRGB;solid-opacity:1;fill:#000000;fill-opacity:0.98207885;stroke:#000000;stroke-width:0.92934036;stroke-linejoin:round;stroke-opacity:0;image-rendering:auto;text-rendering:auto;enable-background:accumulate"
       d="m 140.03744,575.45757 c -0.89612,-3.57046 1.14608,-5.21452 7.55571,-6.08268 9.07329,-1.22895 8.19737,2.43583 8.19737,-34.2971 l 0,-32.6892 -5.80838,-0.63089 c -8.89308,-0.96593 -10.2051,-1.38927 -11.43646,-3.6901 -0.92857,-1.73504 -0.79309,-2.45961 0.72845,-3.89594 1.67483,-1.58104 3.18208,-1.68031 14.49608,-0.95481 6.9448,0.44532 14.2179,0.63179 16.16244,0.41437 1.94455,-0.21743 5.67383,-0.62996 8.2873,-0.91673 5.92772,-0.65046 7.87514,0.99211 7.87514,6.64234 l 0,4.04038 3.283,-3.46661 c 12.81056,-13.52708 36.95648,-10.34166 44.32988,5.84815 3.8887,8.53844 1.65188,20.59666 -4.75569,25.63685 -6.40844,5.04088 -16.5983,3.12393 -21.31982,-4.01077 -2.2325,-3.37354 -2.53003,-4.72756 -2.12144,-9.65456 0.4263,-5.14068 0.90328,-6.13 4.63267,-9.60873 2.89394,-2.69944 5.07221,-3.87802 7.1674,-3.87802 4.64481,0 4.57772,-1.62554 -0.14507,-3.51523 -9.08521,-3.63518 -20.03678,0.58954 -25.36808,9.78609 -5.0032,8.63058 -5.76878,13.76352 -5.47133,36.68334 l 0.27356,21.07933 6.89354,1.12748 c 8.20461,1.34191 11.09243,4.37987 7.21912,7.59443 -1.24843,1.03611 -3.85378,1.03191 -13.58381,-0.0219 -11.42906,-1.2378 -24.80011,-1.03539 -40.12409,0.6074 -6.22591,0.66745 -6.26408,0.65569 -6.96749,-2.1469 z m 27.11729,-8.26734 -2.27284,-0.43777 0,-31.74955 0,-31.74955 5.49622,0 c 3.10674,0 5.81377,-0.51379 6.22663,-1.18181 0.49798,-0.80575 0.16922,-0.96647 -1.03316,-0.50508 -0.96995,0.37221 -3.99922,0.67674 -6.7317,0.67674 l -4.96814,0 0,32.82996 0,32.82996 2.77792,-0.13757 c 2.38178,-0.11794 2.45381,-0.19999 0.50507,-0.57533 z m 57.80094,-43.70034 c 5.6839,-6.28063 -3.57685,-15.11415 -9.56615,-9.12485 -2.42184,2.42185 -2.59267,5.80437 -0.4478,8.86661 2.03672,2.90783 7.48887,3.04843 10.01395,0.25824 z"
       id="path4192"
       inkscape:connector-curvature="0"
       transform="translate(91.428574,72.613312)" />
    <path
       style="color:#000000;overflow:visible;color-interpolation-filters:linearRGB;solid-opacity:1;fill:#000000;fill-opacity:0.97491038;stroke:#000000;stroke-width:0.92934036;stroke-linejoin:round;stroke-opacity:0;image-rendering:auto;text-rendering:auto;enable-background:accumulate"
       d="m 140.0913,575.67215 c -0.35938,-1.43189 -0.36692,-3.06701 -0.0168,-3.6336 0.7883,-1.27549 7.19479,-3.11206 10.8822,-3.11964 1.67334,-0.003 3.15001,-0.7673 3.78807,-1.95953 0.65631,-1.22631 1.0457,-13.6124 1.0457,-33.26234 l 0,-31.30845 -5.80838,-0.63089 c -8.89308,-0.96593 -10.2051,-1.38927 -11.43646,-3.6901 -0.92867,-1.73522 -0.79325,-2.45831 0.72845,-3.88975 1.67052,-1.57143 3.26484,-1.67757 15.00116,-0.99868 7.22259,0.4178 14.49569,0.60095 16.16244,0.407 11.82007,-1.37541 12.56053,-1.36655 14.09567,0.16859 0.88823,0.88823 1.56169,3.30407 1.56169,5.60207 l 0,4.04038 3.283,-3.46661 c 10.03205,-10.59317 27.74138,-11.4895 38.33291,-1.94018 5.41332,4.88066 7.83147,10.31964 7.85938,17.67756 0.0516,13.60257 -9.5912,21.67569 -20.78432,17.401 -6.72627,-2.56878 -9.90052,-7.77628 -9.28253,-15.22838 0.39747,-4.793 1.00304,-6.17569 4.03079,-9.20344 1.96648,-1.96648 5.09505,-3.87638 6.98197,-4.2623 4.64346,-0.94969 4.29564,-2.35937 -0.99511,-4.03311 -10.70409,-3.38626 -21.58714,3.28246 -26.50432,16.24084 -2.28784,6.02919 -2.41669,7.57746 -2.41669,29.03898 l 0,22.67023 6.89354,1.13011 c 8.19265,1.34307 11.09135,4.38339 7.23255,7.58591 -1.23053,1.02125 -4.02482,1.0166 -14.22765,-0.0237 -11.91119,-1.21446 -23.02747,-1.03103 -39.49368,0.6517 -6.10806,0.6242 -6.27609,0.57647 -6.91363,-1.9637 z m 26.55836,-8.46535 c -1.63629,-0.4276 -1.76777,-2.82309 -1.76777,-32.2077 l 0,-31.74574 4.79823,-0.0155 c 2.63902,-0.008 5.48007,-0.50596 6.31345,-1.10544 1.26018,-0.90651 1.20376,-0.98892 -0.33516,-0.48961 -1.01771,0.3302 -4.08605,0.60036 -6.81853,0.60036 l -4.96814,0 0,32.82996 0,32.82996 2.27284,-0.11718 c 1.71036,-0.0882 1.83536,-0.23151 0.50508,-0.57915 z m 58.00423,-43.40187 c 1.07618,-0.97393 1.84731,-3.05837 1.84731,-4.99348 0,-5.80516 -6.9656,-8.59249 -11.11168,-4.44641 -5.88916,5.88916 3.08438,15.03271 9.26437,9.43989 z"
       id="path4194"
       inkscape:connector-curvature="0"
       transform="translate(91.428574,72.613312)" />
    <path
       style="color:#000000;overflow:visible;color-interpolation-filters:linearRGB;solid-opacity:1;fill:#000000;fill-opacity:0.9641577;stroke:#000000;stroke-width:0.46467018;stroke-linejoin:round;stroke-opacity:0;image-rendering:auto;text-rendering:auto;enable-background:accumulate"
       d="m 216.98048,524.22226 c -3.99607,-2.48005 -3.93143,-8.44757 0.11417,-10.53963 2.86689,-1.48253 6.53272,-0.55554 8.26636,2.09034 1.42516,2.17507 0.8378,6.07042 -1.18829,7.88073 -1.86247,1.66412 -5.02424,1.91406 -7.19224,0.56856 z"
       id="path4196"
       inkscape:connector-curvature="0"
       transform="translate(91.428574,72.613312)" />
    <path
       style="color:#000000;overflow:visible;color-interpolation-filters:linearRGB;solid-opacity:1;fill:#000000;fill-opacity:0.96057349;stroke:#000000;stroke-width:0.46467018;stroke-linejoin:round;stroke-opacity:0;image-rendering:auto;text-rendering:auto;enable-background:accumulate"
       d="m 315.78148,553.73577 c -0.006,-17.77527 -0.21993,-20.50547 -2.32268,-29.61585 -2.54496,-11.02627 -8.16711,-19.81602 -15.85441,-24.78698 l -2.52538,-1.63303 3.47761,0.34937 c 7.59811,0.76334 12.99659,3.32956 17.70695,8.41718 5.28792,5.71144 8.30182,13.33144 10.16199,25.69244 0.71693,4.76404 1.73651,36.82517 1.17255,36.87127 -0.10682,0.009 -2.69434,0.45615 -5.75006,0.99428 -3.05571,0.53812 -5.66948,0.98556 -5.80837,0.99431 -0.1389,0.009 -0.25509,-7.76859 -0.2582,-17.28299 z"
       id="path4198"
       inkscape:connector-curvature="0"
       transform="translate(91.428574,72.613312)" />
    <path
       style="color:#000000;overflow:visible;color-interpolation-filters:linearRGB;solid-opacity:1;fill:#000000;fill-opacity:0.97849464;stroke:#000000;stroke-width:0.46467018;stroke-linejoin:round;stroke-opacity:0;image-rendering:auto;text-rendering:auto;enable-background:accumulate"
       d="m 382.83055,522.92609 c 0.14442,-39.83954 0.23401,-43.82184 1.04818,-46.59329 2.00889,-6.83829 5.84814,-13.07838 10.28178,-16.71141 2.29749,-1.88262 8.4715,-5.25496 9.62597,-5.25785 0.34163,-8.6e-4 -0.472,1.67298 -1.80808,3.71964 -2.85961,4.3805 -5.29617,11.29282 -6.47797,18.37754 -0.6987,4.18859 -0.85404,11.2697 -1.04146,47.47552 l -0.22028,42.55267 -5.78303,0 -5.78303,0 0.15792,-43.56282 z"
       id="path4200"
       inkscape:connector-curvature="0"
       transform="translate(91.428574,72.613312)" />
    <path
       style="color:#000000;overflow:visible;color-interpolation-filters:linearRGB;solid-opacity:1;fill:#000000;fill-opacity:0.97491038;stroke:#000000;stroke-width:0.46467018;stroke-linejoin:round;stroke-opacity:0;image-rendering:auto;text-rendering:auto;enable-background:accumulate"
       d="m 469.90038,572.3449 c -1.38896,-0.34325 -3.21903,-0.98832 -4.06681,-1.43349 -2.44852,-1.28571 -5.55576,-5.02146 -6.68333,-8.03516 -2.05911,-5.50348 -2.17809,-8.74834 -2.02406,-55.20365 l 0.14729,-44.42163 4.79632,-1.3905 c 2.63798,-0.76477 5.30345,-1.51777 5.92328,-1.67334 l 1.12695,-0.28285 0.13764,52.40844 c 0.13677,52.07594 0.14439,52.42301 1.20116,54.70693 0.58493,1.26418 1.80172,3.13927 2.70397,4.16688 1.60239,1.82503 1.61287,1.86738 0.45171,1.82542 -0.65381,-0.0236 -2.32516,-0.3238 -3.71412,-0.66705 z"
       id="path4202"
       inkscape:connector-curvature="0"
       transform="translate(91.428574,72.613312)" />
    <path
       style="color:#000000;overflow:visible;color-interpolation-filters:linearRGB;solid-opacity:1;fill:#000000;fill-opacity:0.97491038;stroke:#000000;stroke-width:0.46467018;stroke-linejoin:round;stroke-opacity:0;image-rendering:auto;text-rendering:auto;enable-background:accumulate"
       d="m 551.47019,572.21675 c -0.97227,-0.0943 -2.96101,-0.30154 -4.41941,-0.46059 l -2.65165,-0.28917 0,-54.97684 0,-54.97684 1.38896,-0.28273 c 1.33577,-0.27191 9.53473,-1.31276 10.34081,-1.31276 0.21563,0 0.39206,25.3422 0.39206,56.31601 l 0,56.316 -1.6415,-0.0808 c -0.90282,-0.0445 -2.43699,-0.15797 -3.40927,-0.25225 z"
       id="path4204"
       inkscape:connector-curvature="0"
       transform="translate(91.428574,72.613312)" />
    <path
       style="color:#000000;overflow:visible;color-interpolation-filters:linearRGB;solid-opacity:1;fill:#000000;fill-opacity:0.97132617;stroke:#000000;stroke-width:0.46467018;stroke-linejoin:round;stroke-opacity:0;image-rendering:auto;text-rendering:auto;enable-background:accumulate"
       d="m 677.73926,565.80491 c -6.77297,-4.97386 -12.08496,-13.01547 -14.20706,-21.50749 -1.4517,-5.80926 -1.16942,-17.10015 0.56271,-22.50776 2.14001,-6.68098 5.04457,-11.24031 9.76149,-15.32279 2.59641,-2.24717 8.64955,-5.8246 9.39792,-5.55421 0.25706,0.0929 -0.34504,1.53258 -1.33801,3.19933 -3.96702,6.65891 -6.334,14.04229 -7.18205,22.40314 -1.49192,14.70889 0.40117,29.8003 4.84016,38.58482 0.66677,1.31952 1.03803,2.39348 0.825,2.3866 -0.21302,-0.007 -1.41009,-0.76362 -2.66016,-1.68164 z"
       id="path4206"
       inkscape:connector-curvature="0"
       transform="translate(91.428574,72.613312)" />
    <path
       style="color:#000000;overflow:visible;color-interpolation-filters:linearRGB;solid-opacity:1;fill:#000000;fill-opacity:0.98924732;stroke:#000000;stroke-width:0.46467018;stroke-linejoin:round;stroke-opacity:0;image-rendering:auto;text-rendering:auto;enable-background:accumulate"
       d="m 781.65871,569.12453 -5.93465,-0.14229 0,-32.75942 0,-32.75942 5.93465,-0.21393 c 3.26405,-0.11766 5.99311,-0.17843 6.06457,-0.13503 0.0715,0.0434 0.0715,14.94543 0,33.11565 l -0.12993,33.03674 -5.93464,-0.1423 z"
       id="path4208"
       inkscape:connector-curvature="0"
       transform="translate(91.428574,72.613312)" />
    <path
       style="color:#000000;overflow:visible;color-interpolation-filters:linearRGB;solid-opacity:1;fill:#000000;fill-opacity:0.96774191;stroke:#000000;stroke-width:0.46467018;stroke-linejoin:round;stroke-opacity:0;image-rendering:auto;text-rendering:auto;enable-background:accumulate"
       d="m 892.02566,515.98129 0,-52.52794 1.89403,-0.003 c 1.04172,-0.002 3.76914,-0.149 6.06092,-0.3274 l 4.16688,-0.32437 0,52.85533 0,52.85533 -6.06092,0 -6.06091,0 0,-52.52793 z"
       id="path4210"
       inkscape:connector-curvature="0"
       transform="translate(91.428574,72.613312)" />
    <path
       style="color:#000000;overflow:visible;color-interpolation-filters:linearRGB;solid-opacity:1;fill:#000000;fill-opacity:0.9641577;stroke:#000000;stroke-width:0.46467018;stroke-linejoin:round;stroke-opacity:0;image-rendering:auto;text-rendering:auto;enable-background:accumulate"
       d="m 950.48741,569.27379 c -7.24411,-1.99318 -14.58127,-10.19456 -19.54608,-21.84835 -2.4559,-5.76469 -3.44402,-9.34375 -2.65249,-9.60759 0.32312,-0.10771 2.6732,-1.21096 5.22237,-2.45167 2.54918,-1.24072 4.78818,-2.07558 4.97556,-1.85526 0.18737,0.22031 1.31776,2.9007 2.51197,5.95641 5.10554,13.06388 11.23429,23.06641 17.02201,27.78105 l 2.64517,2.15474 -1.55331,0.31067 c -2.37542,0.47508 -5.96489,0.29197 -8.6252,-0.44 z"
       id="path4212"
       inkscape:connector-curvature="0"
       transform="translate(91.428574,72.613312)" />
    <path
       style="color:#000000;overflow:visible;color-interpolation-filters:linearRGB;solid-opacity:1;fill:#000000;fill-opacity:0.98207885;stroke:#000000;stroke-width:0.46467018;stroke-linejoin:round;stroke-opacity:0;image-rendering:auto;text-rendering:auto;enable-background:accumulate"
       d="m 1019.8106,535.58934 -6e-4,-32.66735 2.6516,-0.27133 c 1.4584,-0.14923 4.2995,-0.36253 6.3135,-0.47398 l 3.6618,-0.20265 3e-4,33.14132 4e-4,33.14133 -6.3132,0 -6.3132,0 -6e-4,-32.66734 z"
       id="path4214"
       inkscape:connector-curvature="0"
       transform="translate(91.428574,72.613312)" />
    <path
       style="color:#000000;overflow:visible;color-interpolation-filters:linearRGB;solid-opacity:1;fill:#000000;fill-opacity:0.98924732;stroke:#000000;stroke-width:0.46467018;stroke-linejoin:round;stroke-opacity:0;image-rendering:auto;text-rendering:auto;enable-background:accumulate"
       d="m 1018.5473,478.92 c -3.2186,-1.5179 -6.1201,-4.41943 -7.638,-7.63796 -1.6765,-3.55477 -1.6726,-9.06726 0.01,-12.67851 3.5452,-7.61361 12.6225,-11.08422 20.0714,-7.67402 6.0642,2.77627 9.2304,7.48785 9.2447,13.75696 0.01,4.37989 -0.74,6.64069 -3.2612,9.83031 -2.9093,3.68053 -7.058,5.6056 -12.0668,5.59916 -2.9698,-0.004 -4.4027,-0.27332 -6.359,-1.19594 z m 11.2066,-9.58583 c 1.4393,-1.57057 1.6728,-2.18722 1.6728,-4.41759 0,-2.33773 -0.1925,-2.78473 -1.9609,-4.5531 -1.7684,-1.76838 -2.2154,-1.96089 -4.5531,-1.96089 -2.226,0 -2.8479,0.23437 -4.4023,1.65885 -1.4288,1.30942 -1.8647,2.14292 -2.0692,3.95691 -0.5123,4.5453 2.6003,7.74982 7.1458,7.35682 2.0817,-0.17998 2.7706,-0.51741 4.1669,-2.041 z"
       id="path4216"
       inkscape:connector-curvature="0"
       transform="translate(91.428574,72.613312)" />
    <path
       style="color:#000000;overflow:visible;color-interpolation-filters:linearRGB;solid-opacity:1;fill:#000000;fill-opacity:0.97849464;stroke:#000000;stroke-width:0.46467018;stroke-linejoin:round;stroke-opacity:0;image-rendering:auto;text-rendering:auto;enable-background:accumulate"
       d="m 1021.7103,470.23886 c -2.6698,-1.44864 -3.6821,-5.34363 -2.1558,-8.29516 1.1202,-2.16621 2.6871,-3.03603 5.4691,-3.03603 2.1282,0 2.6972,0.23373 4.1808,1.71726 1.4835,1.48352 1.7172,2.05256 1.7172,4.18076 0,1.41492 -0.3355,2.94254 -0.7882,3.58893 -1.734,2.47559 -5.6708,3.33757 -8.4231,1.84424 z"
       id="path4218"
       inkscape:connector-curvature="0"
       transform="translate(91.428574,72.613312)" />
  </g>
</svg>
